<?xml version="1.0" encoding="UTF-8" standalone="no"?>
<!DOCTYPE svg PUBLIC "-//W3C//DTD SVG 1.1//EN"
 "http://www.w3.org/Graphics/SVG/1.1/DTD/svg11.dtd">
<!-- Generated by graphviz version 2.40.1 (20161225.0304)
 -->
<!-- Title: G Pages: 1 -->
<svg width="284pt" height="906pt"
 viewBox="0.00 0.00 284.00 906.00" xmlns="http://www.w3.org/2000/svg" xmlns:xlink="http://www.w3.org/1999/xlink">
<g id="graph0" class="graph" transform="scale(1 1) rotate(0) translate(4 902)">
<title>G</title>
<polygon fill="#ffffff" stroke="transparent" points="-4,4 -4,-902 280,-902 280,4 -4,4"/>
<g id="clust1" class="cluster">
<title>cluster_Global</title>
<path fill="none" stroke="#c0c0c0" d="M20,-8C20,-8 256,-8 256,-8 262,-8 268,-14 268,-20 268,-20 268,-878 268,-878 268,-884 262,-890 256,-890 256,-890 20,-890 20,-890 14,-890 8,-884 8,-878 8,-878 8,-20 8,-20 8,-14 14,-8 20,-8"/>
<text text-anchor="middle" x="138" y="-877.2" font-family="Times,serif" font-size="11.00" fill="#c0c0c0">Global</text>
</g>
<!-- \\TCPDF -->
<g id="node1" class="node">
<title>\\TCPDF</title>
<polygon fill="none" stroke="#000000" points="70,-727 16,-727 16,-691 70,-691 70,-727"/>
<text text-anchor="middle" x="43" y="-706.2" font-family="Courier,monospace" font-size="11.00" fill="#000000">TCPDF</text>
</g>
<!-- \\TCPDF_PARSER -->
<g id="node2" class="node">
<title>\\TCPDF_PARSER</title>
<polygon fill="none" stroke="#000000" points="250,-862 152,-862 152,-826 250,-826 250,-862"/>
<text text-anchor="middle" x="201" y="-841.2" font-family="Courier,monospace" font-size="11.00" fill="#000000">TCPDF_PARSER</text>
</g>
<!-- \\MYPDF -->
<g id="node3" class="node">
<title>\\MYPDF</title>
<polygon fill="none" stroke="#000000" points="228,-808 174,-808 174,-772 228,-772 228,-808"/>
<text text-anchor="middle" x="201" y="-787.2" font-family="Courier,monospace" font-size="11.00" fill="#000000">MYPDF</text>
</g>
<!-- \\MYPDF&#45;&gt;\\TCPDF -->
<g id="edge1" class="edge">
<title>\\MYPDF&#45;&gt;\\TCPDF</title>
<path fill="none" stroke="#000000" d="M173.7889,-778.0286C163.727,-773.4761 152.2738,-768.1448 142,-763 120.7879,-752.3777 97.4765,-739.7129 78.8054,-729.319"/>
<polygon fill="none" stroke="#000000" points="80.4782,-726.2444 70.0419,-724.4179 77.0613,-732.3538 80.4782,-726.2444"/>
</g>
<!-- \\MC_TCPDF -->
<g id="node4" class="node">
<title>\\MC_TCPDF</title>
<polygon fill="none" stroke="#000000" points="236.5,-754 165.5,-754 165.5,-718 236.5,-718 236.5,-754"/>
<text text-anchor="middle" x="201" y="-733.2" font-family="Courier,monospace" font-size="11.00" fill="#000000">MC_TCPDF</text>
</g>
<!-- \\MC_TCPDF&#45;&gt;\\TCPDF -->
<g id="edge2" class="edge">
<title>\\MC_TCPDF&#45;&gt;\\TCPDF</title>
<path fill="none" stroke="#000000" d="M165.1474,-729.8733C139.8602,-725.5521 106.065,-719.7769 80.4329,-715.3968"/>
<polygon fill="none" stroke="#000000" points="80.7934,-711.9077 70.3468,-713.6732 79.6143,-718.8077 80.7934,-711.9077"/>
</g>
<!-- \\TOC_TCPDF -->
<g id="node5" class="node">
<title>\\TOC_TCPDF</title>
<polygon fill="none" stroke="#000000" points="239.5,-700 162.5,-700 162.5,-664 239.5,-664 239.5,-700"/>
<text text-anchor="middle" x="201" y="-679.2" font-family="Courier,monospace" font-size="11.00" fill="#000000">TOC_TCPDF</text>
</g>
<!-- \\TOC_TCPDF&#45;&gt;\\TCPDF -->
<g id="edge3" class="edge">
<title>\\TOC_TCPDF&#45;&gt;\\TCPDF</title>
<path fill="none" stroke="#000000" d="M162.3489,-688.6049C137.4079,-692.867 105.1326,-698.3824 80.4352,-702.6028"/>
<polygon fill="none" stroke="#000000" points="79.6255,-699.1904 70.358,-704.3249 80.8047,-706.0904 79.6255,-699.1904"/>
</g>
<!-- \\TCPDF_IMPORT -->
<g id="node6" class="node">
<title>\\TCPDF_IMPORT</title>
<polygon fill="none" stroke="#000000" points="250,-646 152,-646 152,-610 250,-610 250,-646"/>
<text text-anchor="middle" x="201" y="-625.2" font-family="Courier,monospace" font-size="11.00" fill="#000000">TCPDF_IMPORT</text>
</g>
<!-- \\TCPDF_IMPORT&#45;&gt;\\TCPDF -->
<g id="edge4" class="edge">
<title>\\TCPDF_IMPORT&#45;&gt;\\TCPDF</title>
<path fill="none" stroke="#000000" d="M160.5144,-646.0719C154.28,-648.9858 147.9427,-652.0241 142,-655 120.7879,-665.6223 97.4765,-678.2871 78.8054,-688.681"/>
<polygon fill="none" stroke="#000000" points="77.0613,-685.6462 70.0419,-693.5821 80.4782,-691.7556 77.0613,-685.6462"/>
</g>
<!-- \\TCPDF_STATIC -->
<g id="node7" class="node">
<title>\\TCPDF_STATIC</title>
<polygon fill="none" stroke="#000000" points="250,-592 152,-592 152,-556 250,-556 250,-592"/>
<text text-anchor="middle" x="201" y="-571.2" font-family="Courier,monospace" font-size="11.00" fill="#000000">TCPDF_STATIC</text>
</g>
<!-- \\TCPDF_FILTERS -->
<g id="node8" class="node">
<title>\\TCPDF_FILTERS</title>
<polygon fill="none" stroke="#000000" points="253,-538 149,-538 149,-502 253,-502 253,-538"/>
<text text-anchor="middle" x="201" y="-517.2" font-family="Courier,monospace" font-size="11.00" fill="#000000">TCPDF_FILTERS</text>
</g>
<!-- \\QRcode -->
<g id="node9" class="node">
<title>\\QRcode</title>
<polygon fill="none" stroke="#000000" points="229.5,-484 172.5,-484 172.5,-448 229.5,-448 229.5,-484"/>
<text text-anchor="middle" x="201" y="-463.2" font-family="Courier,monospace" font-size="11.00" fill="#000000">QRcode</text>
</g>
<!-- \\PDF417 -->
<g id="node10" class="node">
<title>\\PDF417</title>
<polygon fill="none" stroke="#000000" points="229.5,-430 172.5,-430 172.5,-394 229.5,-394 229.5,-430"/>
<text text-anchor="middle" x="201" y="-409.2" font-family="Courier,monospace" font-size="11.00" fill="#000000">PDF417</text>
</g>
<!-- \\Datamatrix -->
<g id="node11" class="node">
<title>\\Datamatrix</title>
<polygon fill="none" stroke="#000000" points="243,-376 159,-376 159,-340 243,-340 243,-376"/>
<text text-anchor="middle" x="201" y="-355.2" font-family="Courier,monospace" font-size="11.00" fill="#000000">Datamatrix</text>
</g>
<!-- \\TCPDF_COLORS -->
<g id="node12" class="node">
<title>\\TCPDF_COLORS</title>
<polygon fill="none" stroke="#000000" points="250,-322 152,-322 152,-286 250,-286 250,-322"/>
<text text-anchor="middle" x="201" y="-301.2" font-family="Courier,monospace" font-size="11.00" fill="#000000">TCPDF_COLORS</text>
</g>
<!-- \\TCPDF_FONT_DATA -->
<g id="node13" class="node">
<title>\\TCPDF_FONT_DATA</title>
<polygon fill="none" stroke="#000000" points="260,-268 142,-268 142,-232 260,-232 260,-268"/>
<text text-anchor="middle" x="201" y="-247.2" font-family="Courier,monospace" font-size="11.00" fill="#000000">TCPDF_FONT_DATA</text>
</g>
<!-- \\TCPDF_FONTS -->
<g id="node14" class="node">
<title>\\TCPDF_FONTS</title>
<polygon fill="none" stroke="#000000" points="246.5,-214 155.5,-214 155.5,-178 246.5,-178 246.5,-214"/>
<text text-anchor="middle" x="201" y="-193.2" font-family="Courier,monospace" font-size="11.00" fill="#000000">TCPDF_FONTS</text>
</g>
<!-- \\TCPDF_IMAGES -->
<g id="node15" class="node">
<title>\\TCPDF_IMAGES</title>
<polygon fill="none" stroke="#000000" points="250,-160 152,-160 152,-124 250,-124 250,-160"/>
<text text-anchor="middle" x="201" y="-139.2" font-family="Courier,monospace" font-size="11.00" fill="#000000">TCPDF_IMAGES</text>
</g>
<!-- \\TCPDF2DBarcode -->
<g id="node16" class="node">
<title>\\TCPDF2DBarcode</title>
<polygon fill="none" stroke="#000000" points="256.5,-106 145.5,-106 145.5,-70 256.5,-70 256.5,-106"/>
<text text-anchor="middle" x="201" y="-85.2" font-family="Courier,monospace" font-size="11.00" fill="#000000">TCPDF2DBarcode</text>
</g>
<!-- \\TCPDFBarcode -->
<g id="node17" class="node">
<title>\\TCPDFBarcode</title>
<polygon fill="none" stroke="#000000" points="250,-52 152,-52 152,-16 250,-16 250,-52"/>
<text text-anchor="middle" x="201" y="-31.2" font-family="Courier,monospace" font-size="11.00" fill="#000000">TCPDFBarcode</text>
</g>
</g>
</svg>
